# xmcd CD database file
#
# Track frame offsets:
#	150
#	22529
#	36048
#	49614
#	81041
#	103534
#	128474
#	143484
#	156711
#	173587
#	188375
#	201638
#	217269
#	232129
#	246939
#	263260
#	288814
#	308382
#	328960
#
# Disc length: 4615 seconds
#
# Revision: 0
# Processed by: cddbd v1.5.2PL0 Copyright (c) Steve Scherf et al.
# Submitted via: CDex 1.70beta2
#
DISCID=f9120513
DTITLE=Sueddeutsche Zeitung - Jazz - American Journey
DYEAR=2011
DGENRE=Jazz
TTITLE0=Béla Fleck and Edgar Meyer: Bug Tussle
TTITLE1=King Oliver: Showboat Shuffle
TTITLE2=Duke Ellington: East St.Louis Toodle-Oo
TTITLE3=Roy Hargrove Big Band: September In The Rain
TTITLE4=Medeski, Martin and Wood: Shine It
TTITLE5=The Bad Plus: Everybody Wants To Rule The World
TTITLE6=Trombone Shorty: Hurricane Season
TTITLE7=Billie Holiday: You Go To My Head
TTITLE8=Bessie Smith: Nashville Woman's Blues
TTITLE9=Louis Armstrong and His Hot Five: West End Blues
TTITLE10=Bix Beiderbecke And His Gang: Sorry
TTITLE11=Jelly Roll Morton: Doctor Jazz
TTITLE12=Cab Calloway and His Orchestra: Minnie The Moocher
TTITLE13=Don Byron: The Dicty Glide
TTITLE14=David Sanchez: Street Scenes Downtown
TTITLE15=Charles Lloyd: Lotos Blossom
TTITLE16=Paul Motian, Bill Frisell, Joe Lovano: Cambodia
TTITLE17=Jason Moran: Blue Blocks
TTITLE18=Chick Corea and Dave Grusin: ´S Wonderful
EXTD=YEAR: 2011
EXTT0=
EXTT1=
EXTT2=
EXTT3=
EXTT4=
EXTT5=
EXTT6=
EXTT7=
EXTT8=
EXTT9=
EXTT10=
EXTT11=
EXTT12=
EXTT13=
EXTT14=
EXTT15=
EXTT16=
EXTT17=
EXTT18=
PLAYORDER=
